<mxfile host="65bd71144e">
    <diagram id="qYwaJn3bZgTZIYo_J4ah" name="Page-1">
        <mxGraphModel dx="926" dy="614" grid="1" gridSize="10" guides="1" tooltips="1" connect="1" arrows="1" fold="1" page="1" pageScale="1" pageWidth="850" pageHeight="1100" background="none" math="0" shadow="0">
            <root>
                <mxCell id="0"/>
                <mxCell id="1" parent="0"/>
                <mxCell id="4" value="" style="edgeStyle=none;html=1;strokeColor=#432D57;strokeWidth=2;shadow=0;fillColor=#76608a;fontStyle=1;fontFamily=Verdana;" edge="1" parent="1" source="2" target="3">
                    <mxGeometry relative="1" as="geometry"/>
                </mxCell>
                <mxCell id="2" value="USER" style="rounded=1;whiteSpace=wrap;html=1;strokeColor=#432D57;shadow=0;fillColor=#76608a;fontColor=#ffffff;fontStyle=1;fontFamily=Verdana;" vertex="1" parent="1">
                    <mxGeometry x="40" y="280" width="120" height="60" as="geometry"/>
                </mxCell>
                <mxCell id="6" value="" style="edgeStyle=none;html=1;strokeColor=#432D57;strokeWidth=2;shadow=0;fillColor=#76608a;fontStyle=1;fontFamily=Verdana;" edge="1" parent="1" source="3" target="5">
                    <mxGeometry relative="1" as="geometry"/>
                </mxCell>
                <mxCell id="9" style="edgeStyle=none;html=1;exitX=0;exitY=0.75;exitDx=0;exitDy=0;entryX=1;entryY=0.75;entryDx=0;entryDy=0;strokeColor=#432D57;strokeWidth=2;shadow=0;fillColor=#76608a;fontStyle=1;fontFamily=Verdana;" edge="1" parent="1" source="3" target="2">
                    <mxGeometry relative="1" as="geometry"/>
                </mxCell>
                <mxCell id="3" value="TERMINAL" style="whiteSpace=wrap;html=1;rounded=1;strokeColor=#432D57;shadow=0;fillColor=#76608a;fontColor=#ffffff;fontStyle=1;fontFamily=Verdana;" vertex="1" parent="1">
                    <mxGeometry x="240" y="280" width="120" height="60" as="geometry"/>
                </mxCell>
                <mxCell id="8" value="" style="edgeStyle=none;html=1;strokeColor=#432D57;strokeWidth=2;shadow=0;fillColor=#76608a;fontStyle=1;fontFamily=Verdana;" edge="1" parent="1" source="5" target="7">
                    <mxGeometry relative="1" as="geometry"/>
                </mxCell>
                <mxCell id="10" style="edgeStyle=none;html=1;exitX=0;exitY=0.75;exitDx=0;exitDy=0;entryX=1;entryY=0.75;entryDx=0;entryDy=0;strokeColor=#432D57;strokeWidth=2;shadow=0;fillColor=#76608a;fontStyle=1;fontFamily=Verdana;" edge="1" parent="1" source="5" target="3">
                    <mxGeometry relative="1" as="geometry"/>
                </mxCell>
                <mxCell id="5" value="SHELL OS KERNEL" style="whiteSpace=wrap;html=1;rounded=1;strokeColor=#432D57;shadow=0;fillColor=#76608a;fontColor=#ffffff;fontStyle=1;fontFamily=Verdana;" vertex="1" parent="1">
                    <mxGeometry x="440" y="280" width="120" height="60" as="geometry"/>
                </mxCell>
                <mxCell id="11" style="edgeStyle=none;html=1;exitX=0;exitY=0.75;exitDx=0;exitDy=0;entryX=1;entryY=0.75;entryDx=0;entryDy=0;strokeColor=#432D57;strokeWidth=2;shadow=0;fillColor=#76608a;fontStyle=1;fontFamily=Verdana;" edge="1" parent="1" source="7" target="5">
                    <mxGeometry relative="1" as="geometry"/>
                </mxCell>
                <mxCell id="7" value="HARDWARE" style="whiteSpace=wrap;html=1;rounded=1;strokeColor=#432D57;shadow=0;fillColor=#76608a;fontColor=#ffffff;fontStyle=1;fontFamily=Verdana;" vertex="1" parent="1">
                    <mxGeometry x="640" y="280" width="120" height="60" as="geometry"/>
                </mxCell>
            </root>
        </mxGraphModel>
    </diagram>
</mxfile>